<svg xmlns="http://www.w3.org/2000/svg" width="500" height="500" viewBox="0 0 500 500">
  <rect width="500" height="500" fill="black"/>
  <path fill="white" d="M193 104 C185 105 182 110 182 119 L186 230 C186 236 190 239 197 239 L227 239 C222 246 210 253 204 264 C194 277 182 285 180 299 C178 314 189 335 200 343 C206 347 213 348 220 343 L221 425 C221 441 224 458 238 466 C250 473 262 467 267 458 C271 465 283 470 293 466 C305 461 308 446 303 433 L303 346 C312 341 323 320 322 304 C322 289 310 279 302 266 C296 256 286 248 283 239 L320 239 C325 239 328 235 328 230 L329 115 C328 108 324 104 317 103 Z"/>
  <path fill="black" d="M203 286 C211 279 217 278 220 284 L220 326 C215 336 209 343 202 339 C195 335 191 322 192 311 C193 301 197 292 203 286 Z"/>
  <path fill="black" d="M300 285 C307 289 313 298 314 308 C316 320 311 333 304 339 L303 326 C308 317 308 306 305 298 C303 293 300 289 296 287 Z"/>
  <path fill="black" d="M265 430 C265 444 265 455 267 460 C270 453 270 442 270 430 Z"/>
</svg>
